<?xml version="1.0" encoding="UTF-8" standalone="no"?>
<!DOCTYPE svg PUBLIC "-//W3C//DTD SVG 1.1//EN"
 "http://www.w3.org/Graphics/SVG/1.1/DTD/svg11.dtd">
<!-- Generated by graphviz version 2.43.0 (0)
 -->
<!-- Title: subclass_vocab_graph Pages: 1 -->
<svg width="1102pt" height="443pt"
 viewBox="0.00 0.00 1102.00 443.00" xmlns="http://www.w3.org/2000/svg" xmlns:xlink="http://www.w3.org/1999/xlink">
<g id="graph0" class="graph" transform="scale(1 1) rotate(0) translate(4 439)">
<title>subclass_vocab_graph</title>
<polygon fill="white" stroke="transparent" points="-4,4 -4,-439 1098,-439 1098,4 -4,4"/>
<text text-anchor="middle" x="547" y="-421.4" font-family="Courier,monospace" font-size="12.00">Subclass Vocab Graph</text>
<!-- ArtifactComposition -->
<g id="node1" class="node">
<title>ArtifactComposition</title>
<path fill="#b3e2cd" stroke="black" d="M186,-90C186,-90 37,-90 37,-90 31,-90 25,-84 25,-78 25,-78 25,-66 25,-66 25,-60 31,-54 37,-54 37,-54 186,-54 186,-54 192,-54 198,-60 198,-66 198,-66 198,-78 198,-78 198,-84 192,-90 186,-90"/>
<text text-anchor="middle" x="111.5" y="-68.3" font-family="Courier,monospace" font-size="14.00">ArtifactComposition</text>
</g>
<!-- ArtifactCollection -->
<g id="node2" class="node">
<title>ArtifactCollection</title>
<path fill="#b3e2cd" stroke="black" d="M461.5,-63C461.5,-63 320.5,-63 320.5,-63 314.5,-63 308.5,-57 308.5,-51 308.5,-51 308.5,-39 308.5,-39 308.5,-33 314.5,-27 320.5,-27 320.5,-27 461.5,-27 461.5,-27 467.5,-27 473.5,-33 473.5,-39 473.5,-39 473.5,-51 473.5,-51 473.5,-57 467.5,-63 461.5,-63"/>
<text text-anchor="middle" x="391" y="-41.3" font-family="Courier,monospace" font-size="14.00">ArtifactCollection</text>
</g>
<!-- ArtifactComposition&#45;&gt;ArtifactCollection -->
<g id="edge1" class="edge">
<title>ArtifactComposition&#45;&gt;ArtifactCollection</title>
<path fill="none" stroke="black" d="M198.02,-63.68C229.64,-60.6 265.6,-57.1 297.78,-53.97"/>
<polygon fill="black" stroke="black" points="298.47,-57.42 308.08,-52.97 297.79,-50.46 298.47,-57.42"/>
</g>
<!-- ArtifactLocus -->
<g id="node3" class="node">
<title>ArtifactLocus</title>
<path fill="#b3e2cd" stroke="black" d="M161.5,-36C161.5,-36 61.5,-36 61.5,-36 55.5,-36 49.5,-30 49.5,-24 49.5,-24 49.5,-12 49.5,-12 49.5,-6 55.5,0 61.5,0 61.5,0 161.5,0 161.5,0 167.5,0 173.5,-6 173.5,-12 173.5,-12 173.5,-24 173.5,-24 173.5,-30 167.5,-36 161.5,-36"/>
<text text-anchor="middle" x="111.5" y="-14.3" font-family="Courier,monospace" font-size="14.00">ArtifactLocus</text>
</g>
<!-- ArtifactLocus&#45;&gt;ArtifactCollection -->
<g id="edge2" class="edge">
<title>ArtifactLocus&#45;&gt;ArtifactCollection</title>
<path fill="none" stroke="black" d="M173.74,-23.96C210.31,-27.52 257.45,-32.1 298.39,-36.09"/>
<polygon fill="black" stroke="black" points="298.08,-39.57 308.38,-37.06 298.76,-32.61 298.08,-39.57"/>
</g>
<!-- TROAttribute -->
<g id="node4" class="node">
<title>TROAttribute</title>
<path fill="#b3e2cd" stroke="black" d="M930,-117C930,-117 838,-117 838,-117 832,-117 826,-111 826,-105 826,-105 826,-93 826,-93 826,-87 832,-81 838,-81 838,-81 930,-81 930,-81 936,-81 942,-87 942,-93 942,-93 942,-105 942,-105 942,-111 936,-117 930,-117"/>
<text text-anchor="middle" x="884" y="-95.3" font-family="Courier,monospace" font-size="14.00">TROAttribute</text>
</g>
<!-- TREAttribute -->
<g id="node5" class="node">
<title>TREAttribute</title>
<path fill="#b3e2cd" stroke="black" d="M1082,-171C1082,-171 990,-171 990,-171 984,-171 978,-165 978,-159 978,-159 978,-147 978,-147 978,-141 984,-135 990,-135 990,-135 1082,-135 1082,-135 1088,-135 1094,-141 1094,-147 1094,-147 1094,-159 1094,-159 1094,-165 1088,-171 1082,-171"/>
<text text-anchor="middle" x="1036" y="-149.3" font-family="Courier,monospace" font-size="14.00">TREAttribute</text>
</g>
<!-- TROAttribute&#45;&gt;TREAttribute -->
<g id="edge3" class="edge">
<title>TROAttribute&#45;&gt;TREAttribute</title>
<path fill="none" stroke="black" d="M935.37,-117.13C948.17,-121.74 962.06,-126.74 975.28,-131.5"/>
<polygon fill="black" stroke="black" points="974.17,-134.82 984.77,-134.92 976.54,-128.24 974.17,-134.82"/>
</g>
<!-- TRPAttribute -->
<g id="node6" class="node">
<title>TRPAttribute</title>
<path fill="#b3e2cd" stroke="black" d="M930,-225C930,-225 838,-225 838,-225 832,-225 826,-219 826,-213 826,-213 826,-201 826,-201 826,-195 832,-189 838,-189 838,-189 930,-189 930,-189 936,-189 942,-195 942,-201 942,-201 942,-213 942,-213 942,-219 936,-225 930,-225"/>
<text text-anchor="middle" x="884" y="-203.3" font-family="Courier,monospace" font-size="14.00">TRPAttribute</text>
</g>
<!-- TRPAttribute&#45;&gt;TREAttribute -->
<g id="edge4" class="edge">
<title>TRPAttribute&#45;&gt;TREAttribute</title>
<path fill="none" stroke="black" d="M935.37,-188.87C948.17,-184.26 962.06,-179.26 975.28,-174.5"/>
<polygon fill="black" stroke="black" points="976.54,-177.76 984.77,-171.08 974.17,-171.18 976.54,-177.76"/>
</g>
<!-- TRSAttribute -->
<g id="node7" class="node">
<title>TRSAttribute</title>
<path fill="#b3e2cd" stroke="black" d="M930,-171C930,-171 838,-171 838,-171 832,-171 826,-165 826,-159 826,-159 826,-147 826,-147 826,-141 832,-135 838,-135 838,-135 930,-135 930,-135 936,-135 942,-141 942,-147 942,-147 942,-159 942,-159 942,-165 936,-171 930,-171"/>
<text text-anchor="middle" x="884" y="-149.3" font-family="Courier,monospace" font-size="14.00">TRSAttribute</text>
</g>
<!-- TRSAttribute&#45;&gt;TREAttribute -->
<g id="edge5" class="edge">
<title>TRSAttribute&#45;&gt;TREAttribute</title>
<path fill="none" stroke="black" d="M942.14,-153C950.38,-153 958.92,-153 967.34,-153"/>
<polygon fill="black" stroke="black" points="967.53,-156.5 977.53,-153 967.53,-149.5 967.53,-156.5"/>
</g>
<!-- IncludesAllInputData -->
<g id="node8" class="node">
<title>IncludesAllInputData</title>
<path fill="#b3e2cd" stroke="black" d="M753.5,-117C753.5,-117 595.5,-117 595.5,-117 589.5,-117 583.5,-111 583.5,-105 583.5,-105 583.5,-93 583.5,-93 583.5,-87 589.5,-81 595.5,-81 595.5,-81 753.5,-81 753.5,-81 759.5,-81 765.5,-87 765.5,-93 765.5,-93 765.5,-105 765.5,-105 765.5,-111 759.5,-117 753.5,-117"/>
<text text-anchor="middle" x="674.5" y="-95.3" font-family="Courier,monospace" font-size="14.00">IncludesAllInputData</text>
</g>
<!-- IncludesAllInputData&#45;&gt;TROAttribute -->
<g id="edge6" class="edge">
<title>IncludesAllInputData&#45;&gt;TROAttribute</title>
<path fill="none" stroke="black" d="M765.61,-99C782.38,-99 799.65,-99 815.6,-99"/>
<polygon fill="black" stroke="black" points="815.87,-102.5 825.87,-99 815.87,-95.5 815.87,-102.5"/>
</g>
<!-- InternetAccessRecording -->
<g id="node9" class="node">
<title>InternetAccessRecording</title>
<path fill="#b3e2cd" stroke="black" d="M765.5,-279C765.5,-279 583.5,-279 583.5,-279 577.5,-279 571.5,-273 571.5,-267 571.5,-267 571.5,-255 571.5,-255 571.5,-249 577.5,-243 583.5,-243 583.5,-243 765.5,-243 765.5,-243 771.5,-243 777.5,-249 777.5,-255 777.5,-255 777.5,-267 777.5,-267 777.5,-273 771.5,-279 765.5,-279"/>
<text text-anchor="middle" x="674.5" y="-257.3" font-family="Courier,monospace" font-size="14.00">InternetAccessRecording</text>
</g>
<!-- InternetAccessRecording&#45;&gt;TRPAttribute -->
<g id="edge7" class="edge">
<title>InternetAccessRecording&#45;&gt;TRPAttribute</title>
<path fill="none" stroke="black" d="M754.47,-242.93C766.4,-240.04 778.54,-237.01 790,-234 798.39,-231.79 807.17,-229.38 815.85,-226.94"/>
<polygon fill="black" stroke="black" points="816.92,-230.27 825.58,-224.17 815,-223.54 816.92,-230.27"/>
</g>
<!-- InternetIsolation -->
<g id="node10" class="node">
<title>InternetIsolation</title>
<path fill="#b3e2cd" stroke="black" d="M741,-225C741,-225 608,-225 608,-225 602,-225 596,-219 596,-213 596,-213 596,-201 596,-201 596,-195 602,-189 608,-189 608,-189 741,-189 741,-189 747,-189 753,-195 753,-201 753,-201 753,-213 753,-213 753,-219 747,-225 741,-225"/>
<text text-anchor="middle" x="674.5" y="-203.3" font-family="Courier,monospace" font-size="14.00">InternetIsolation</text>
</g>
<!-- InternetIsolation&#45;&gt;TRPAttribute -->
<g id="edge8" class="edge">
<title>InternetIsolation&#45;&gt;TRPAttribute</title>
<path fill="none" stroke="black" d="M753.06,-207C773.65,-207 795.7,-207 815.69,-207"/>
<polygon fill="black" stroke="black" points="815.94,-210.5 825.94,-207 815.94,-203.5 815.94,-210.5"/>
</g>
<!-- TRSCapability -->
<g id="node11" class="node">
<title>TRSCapability</title>
<path fill="#b3e2cd" stroke="black" d="M724.5,-171C724.5,-171 624.5,-171 624.5,-171 618.5,-171 612.5,-165 612.5,-159 612.5,-159 612.5,-147 612.5,-147 612.5,-141 618.5,-135 624.5,-135 624.5,-135 724.5,-135 724.5,-135 730.5,-135 736.5,-141 736.5,-147 736.5,-147 736.5,-159 736.5,-159 736.5,-165 730.5,-171 724.5,-171"/>
<text text-anchor="middle" x="674.5" y="-149.3" font-family="Courier,monospace" font-size="14.00">TRSCapability</text>
</g>
<!-- TRSCapability&#45;&gt;TRSAttribute -->
<g id="edge9" class="edge">
<title>TRSCapability&#45;&gt;TRSAttribute</title>
<path fill="none" stroke="black" d="M736.63,-153C761.43,-153 790.16,-153 815.56,-153"/>
<polygon fill="black" stroke="black" points="815.85,-156.5 825.85,-153 815.85,-149.5 815.85,-156.5"/>
</g>
<!-- CanProvideInternetIsolation -->
<g id="node12" class="node">
<title>CanProvideInternetIsolation</title>
<path fill="#b3e2cd" stroke="black" d="M498.5,-198C498.5,-198 283.5,-198 283.5,-198 277.5,-198 271.5,-192 271.5,-186 271.5,-186 271.5,-174 271.5,-174 271.5,-168 277.5,-162 283.5,-162 283.5,-162 498.5,-162 498.5,-162 504.5,-162 510.5,-168 510.5,-174 510.5,-174 510.5,-186 510.5,-186 510.5,-192 504.5,-198 498.5,-198"/>
<text text-anchor="middle" x="391" y="-176.3" font-family="Courier,monospace" font-size="14.00">CanProvideInternetIsolation</text>
</g>
<!-- CanProvideInternetIsolation&#45;&gt;TRSCapability -->
<g id="edge10" class="edge">
<title>CanProvideInternetIsolation&#45;&gt;TRSCapability</title>
<path fill="none" stroke="black" d="M510.57,-168.63C541.75,-165.64 574.42,-162.5 602.25,-159.83"/>
<polygon fill="black" stroke="black" points="602.65,-163.31 612.27,-158.87 601.98,-156.34 602.65,-163.31"/>
</g>
<!-- TRSPolicy -->
<g id="node13" class="node">
<title>TRSPolicy</title>
<path fill="#b3e2cd" stroke="black" d="M424.5,-144C424.5,-144 357.5,-144 357.5,-144 351.5,-144 345.5,-138 345.5,-132 345.5,-132 345.5,-120 345.5,-120 345.5,-114 351.5,-108 357.5,-108 357.5,-108 424.5,-108 424.5,-108 430.5,-108 436.5,-114 436.5,-120 436.5,-120 436.5,-132 436.5,-132 436.5,-138 430.5,-144 424.5,-144"/>
<text text-anchor="middle" x="391" y="-122.3" font-family="Courier,monospace" font-size="14.00">TRSPolicy</text>
</g>
<!-- TRSPolicy&#45;&gt;TRSCapability -->
<g id="edge11" class="edge">
<title>TRSPolicy&#45;&gt;TRSCapability</title>
<path fill="none" stroke="black" d="M436.6,-130.28C481.08,-134.54 550.09,-141.16 602.17,-146.16"/>
<polygon fill="black" stroke="black" points="602.06,-149.66 612.35,-147.13 602.73,-142.7 602.06,-149.66"/>
</g>
<!-- EnforcesInternetIsolation -->
<g id="node14" class="node">
<title>EnforcesInternetIsolation</title>
<path fill="#b3e2cd" stroke="black" d="M211,-144C211,-144 12,-144 12,-144 6,-144 0,-138 0,-132 0,-132 0,-120 0,-120 0,-114 6,-108 12,-108 12,-108 211,-108 211,-108 217,-108 223,-114 223,-120 223,-120 223,-132 223,-132 223,-138 217,-144 211,-144"/>
<text text-anchor="middle" x="111.5" y="-122.3" font-family="Courier,monospace" font-size="14.00">EnforcesInternetIsolation</text>
</g>
<!-- EnforcesInternetIsolation&#45;&gt;TRSPolicy -->
<g id="edge12" class="edge">
<title>EnforcesInternetIsolation&#45;&gt;TRSPolicy</title>
<path fill="none" stroke="black" d="M223.37,-126C261.92,-126 303.47,-126 335.43,-126"/>
<polygon fill="black" stroke="black" points="335.46,-129.5 345.46,-126 335.46,-122.5 335.46,-129.5"/>
</g>
<!-- TimeStampingAuthority -->
<g id="node15" class="node">
<title>TimeStampingAuthority</title>
<path fill="#b3e2cd" stroke="black" d="M474,-414C474,-414 308,-414 308,-414 302,-414 296,-408 296,-402 296,-402 296,-390 296,-390 296,-384 302,-378 308,-378 308,-378 474,-378 474,-378 480,-378 486,-384 486,-390 486,-390 486,-402 486,-402 486,-408 480,-414 474,-414"/>
<text text-anchor="middle" x="391" y="-392.3" font-family="Courier,monospace" font-size="14.00">TimeStampingAuthority</text>
</g>
<!-- TransparentResearchElement -->
<g id="node16" class="node">
<title>TransparentResearchElement</title>
<path fill="#b3e2cd" stroke="black" d="M778,-346C778,-346 571,-346 571,-346 565,-346 559,-340 559,-334 559,-334 559,-322 559,-322 559,-316 565,-310 571,-310 571,-310 778,-310 778,-310 784,-310 790,-316 790,-322 790,-322 790,-334 790,-334 790,-340 784,-346 778,-346"/>
<text text-anchor="middle" x="674.5" y="-324.3" font-family="Courier,monospace" font-size="14.00">TransparentResearchElement</text>
</g>
<!-- TimeStampingAuthority&#45;&gt;TransparentResearchElement -->
<g id="edge13" class="edge">
<title>TimeStampingAuthority&#45;&gt;TransparentResearchElement</title>
<path fill="none" stroke="black" d="M483.07,-378C496.49,-375.12 510.13,-372.08 523,-369 548.58,-362.89 576.41,-355.51 601.1,-348.71"/>
<polygon fill="black" stroke="black" points="602.05,-352.08 610.75,-346.04 600.18,-345.33 602.05,-352.08"/>
</g>
<!-- TransparentResearchObject -->
<g id="node17" class="node">
<title>TransparentResearchObject</title>
<path fill="#b3e2cd" stroke="black" d="M490.5,-360C490.5,-360 291.5,-360 291.5,-360 285.5,-360 279.5,-354 279.5,-348 279.5,-348 279.5,-336 279.5,-336 279.5,-330 285.5,-324 291.5,-324 291.5,-324 490.5,-324 490.5,-324 496.5,-324 502.5,-330 502.5,-336 502.5,-336 502.5,-348 502.5,-348 502.5,-354 496.5,-360 490.5,-360"/>
<text text-anchor="middle" x="391" y="-338.3" font-family="Courier,monospace" font-size="14.00">TransparentResearchObject</text>
</g>
<!-- TransparentResearchObject&#45;&gt;TransparentResearchElement -->
<g id="edge14" class="edge">
<title>TransparentResearchObject&#45;&gt;TransparentResearchElement</title>
<path fill="none" stroke="black" d="M502.85,-336.49C517.73,-335.75 533.07,-334.98 548.17,-334.23"/>
<polygon fill="black" stroke="black" points="548.77,-337.71 558.58,-333.72 548.42,-330.72 548.77,-337.71"/>
</g>
<!-- TransparentResearchPerformance -->
<g id="node18" class="node">
<title>TransparentResearchPerformance</title>
<path fill="#b3e2cd" stroke="black" d="M511,-306C511,-306 271,-306 271,-306 265,-306 259,-300 259,-294 259,-294 259,-282 259,-282 259,-276 265,-270 271,-270 271,-270 511,-270 511,-270 517,-270 523,-276 523,-282 523,-282 523,-294 523,-294 523,-300 517,-306 511,-306"/>
<text text-anchor="middle" x="391" y="-284.3" font-family="Courier,monospace" font-size="14.00">TransparentResearchPerformance</text>
</g>
<!-- TransparentResearchPerformance&#45;&gt;TransparentResearchElement -->
<g id="edge15" class="edge">
<title>TransparentResearchPerformance&#45;&gt;TransparentResearchElement</title>
<path fill="none" stroke="black" d="M518.75,-306.01C528.71,-307.43 538.76,-308.85 548.71,-310.27"/>
<polygon fill="black" stroke="black" points="548.22,-313.73 558.61,-311.68 549.21,-306.8 548.22,-313.73"/>
</g>
<!-- TransparentResearchSystem -->
<g id="node19" class="node">
<title>TransparentResearchSystem</title>
<path fill="#b3e2cd" stroke="black" d="M490.5,-252C490.5,-252 291.5,-252 291.5,-252 285.5,-252 279.5,-246 279.5,-240 279.5,-240 279.5,-228 279.5,-228 279.5,-222 285.5,-216 291.5,-216 291.5,-216 490.5,-216 490.5,-216 496.5,-216 502.5,-222 502.5,-228 502.5,-228 502.5,-240 502.5,-240 502.5,-246 496.5,-252 490.5,-252"/>
<text text-anchor="middle" x="391" y="-230.3" font-family="Courier,monospace" font-size="14.00">TransparentResearchSystem</text>
</g>
<!-- TransparentResearchSystem&#45;&gt;TransparentResearchElement -->
<g id="edge16" class="edge">
<title>TransparentResearchSystem&#45;&gt;TransparentResearchElement</title>
<path fill="none" stroke="black" d="M499.41,-252.05C507.53,-254.65 515.48,-257.61 523,-261 541.23,-269.22 541.35,-278.59 559,-288 572.13,-295 586.75,-301.19 601.02,-306.47"/>
<polygon fill="black" stroke="black" points="600.22,-309.91 610.82,-309.99 602.59,-303.32 600.22,-309.91"/>
</g>
<!-- ArtifactArrangement -->
<g id="node20" class="node">
<title>ArtifactArrangement</title>
<path fill="#b3e2cd" stroke="black" d="M186,-360C186,-360 37,-360 37,-360 31,-360 25,-354 25,-348 25,-348 25,-336 25,-336 25,-330 31,-324 37,-324 37,-324 186,-324 186,-324 192,-324 198,-330 198,-336 198,-336 198,-348 198,-348 198,-354 192,-360 186,-360"/>
<text text-anchor="middle" x="111.5" y="-338.3" font-family="Courier,monospace" font-size="14.00">ArtifactArrangement</text>
</g>
<!-- ArtifactArrangement&#45;&gt;TransparentResearchObject -->
<g id="edge17" class="edge">
<title>ArtifactArrangement&#45;&gt;TransparentResearchObject</title>
<path fill="none" stroke="black" d="M198.02,-342C220.53,-342 245.23,-342 269.21,-342"/>
<polygon fill="black" stroke="black" points="269.43,-345.5 279.43,-342 269.43,-338.5 269.43,-345.5"/>
</g>
</g>
</svg>
