<?xml version="1.0" encoding="UTF-8" standalone="no"?>
<!DOCTYPE svg PUBLIC "-//W3C//DTD SVG 1.1//EN"
 "http://www.w3.org/Graphics/SVG/1.1/DTD/svg11.dtd">
<!-- Generated by graphviz version 2.43.0 (0)
 -->
<!-- Title: subclass_vocab_graph Pages: 1 -->
<svg width="1069pt" height="389pt"
 viewBox="0.00 0.00 1069.00 389.00" xmlns="http://www.w3.org/2000/svg" xmlns:xlink="http://www.w3.org/1999/xlink">
<g id="graph0" class="graph" transform="scale(1 1) rotate(0) translate(4 385)">
<title>subclass_vocab_graph</title>
<polygon fill="white" stroke="transparent" points="-4,4 -4,-385 1065,-385 1065,4 -4,4"/>
<text text-anchor="middle" x="530.5" y="-367.4" font-family="Courier,monospace" font-size="12.00">Subclass Vocab Graph</text>
<!-- ArtifactComposition -->
<g id="node1" class="node">
<title>ArtifactComposition</title>
<path fill="#b3e2cd" stroke="black" d="M206.5,-90C206.5,-90 57.5,-90 57.5,-90 51.5,-90 45.5,-84 45.5,-78 45.5,-78 45.5,-66 45.5,-66 45.5,-60 51.5,-54 57.5,-54 57.5,-54 206.5,-54 206.5,-54 212.5,-54 218.5,-60 218.5,-66 218.5,-66 218.5,-78 218.5,-78 218.5,-84 212.5,-90 206.5,-90"/>
<text text-anchor="middle" x="132" y="-68.3" font-family="Courier,monospace" font-size="14.00">ArtifactComposition</text>
</g>
<!-- ArtifactCollection -->
<g id="node2" class="node">
<title>ArtifactCollection</title>
<path fill="#b3e2cd" stroke="black" d="M490,-63C490,-63 349,-63 349,-63 343,-63 337,-57 337,-51 337,-51 337,-39 337,-39 337,-33 343,-27 349,-27 349,-27 490,-27 490,-27 496,-27 502,-33 502,-39 502,-39 502,-51 502,-51 502,-57 496,-63 490,-63"/>
<text text-anchor="middle" x="419.5" y="-41.3" font-family="Courier,monospace" font-size="14.00">ArtifactCollection</text>
</g>
<!-- ArtifactComposition&#45;&gt;ArtifactCollection -->
<g id="edge1" class="edge">
<title>ArtifactComposition&#45;&gt;ArtifactCollection</title>
<path fill="none" stroke="black" d="M218.66,-63.9C252.74,-60.68 292.03,-56.96 326.7,-53.68"/>
<polygon fill="black" stroke="black" points="327.19,-57.15 336.82,-52.72 326.53,-50.18 327.19,-57.15"/>
</g>
<!-- ArtifactLocus -->
<g id="node3" class="node">
<title>ArtifactLocus</title>
<path fill="#b3e2cd" stroke="black" d="M182,-36C182,-36 82,-36 82,-36 76,-36 70,-30 70,-24 70,-24 70,-12 70,-12 70,-6 76,0 82,0 82,0 182,0 182,0 188,0 194,-6 194,-12 194,-12 194,-24 194,-24 194,-30 188,-36 182,-36"/>
<text text-anchor="middle" x="132" y="-14.3" font-family="Courier,monospace" font-size="14.00">ArtifactLocus</text>
</g>
<!-- ArtifactLocus&#45;&gt;ArtifactCollection -->
<g id="edge2" class="edge">
<title>ArtifactLocus&#45;&gt;ArtifactCollection</title>
<path fill="none" stroke="black" d="M194.25,-23.79C232.86,-27.44 283.43,-32.23 326.77,-36.33"/>
<polygon fill="black" stroke="black" points="326.48,-39.81 336.76,-37.27 327.14,-32.84 326.48,-39.81"/>
</g>
<!-- TROAttribute -->
<g id="node4" class="node">
<title>TROAttribute</title>
<path fill="#b3e2cd" stroke="black" d="M897,-117C897,-117 805,-117 805,-117 799,-117 793,-111 793,-105 793,-105 793,-93 793,-93 793,-87 799,-81 805,-81 805,-81 897,-81 897,-81 903,-81 909,-87 909,-93 909,-93 909,-105 909,-105 909,-111 903,-117 897,-117"/>
<text text-anchor="middle" x="851" y="-95.3" font-family="Courier,monospace" font-size="14.00">TROAttribute</text>
</g>
<!-- TREAttribute -->
<g id="node5" class="node">
<title>TREAttribute</title>
<path fill="#b3e2cd" stroke="black" d="M1049,-144C1049,-144 957,-144 957,-144 951,-144 945,-138 945,-132 945,-132 945,-120 945,-120 945,-114 951,-108 957,-108 957,-108 1049,-108 1049,-108 1055,-108 1061,-114 1061,-120 1061,-120 1061,-132 1061,-132 1061,-138 1055,-144 1049,-144"/>
<text text-anchor="middle" x="1003" y="-122.3" font-family="Courier,monospace" font-size="14.00">TREAttribute</text>
</g>
<!-- TROAttribute&#45;&gt;TREAttribute -->
<g id="edge3" class="edge">
<title>TROAttribute&#45;&gt;TREAttribute</title>
<path fill="none" stroke="black" d="M909.14,-109.28C917.47,-110.78 926.11,-112.34 934.62,-113.87"/>
<polygon fill="black" stroke="black" points="934.06,-117.33 944.53,-115.65 935.3,-110.44 934.06,-117.33"/>
</g>
<!-- TRSAttribute -->
<g id="node6" class="node">
<title>TRSAttribute</title>
<path fill="#b3e2cd" stroke="black" d="M897,-171C897,-171 805,-171 805,-171 799,-171 793,-165 793,-159 793,-159 793,-147 793,-147 793,-141 799,-135 805,-135 805,-135 897,-135 897,-135 903,-135 909,-141 909,-147 909,-147 909,-159 909,-159 909,-165 903,-171 897,-171"/>
<text text-anchor="middle" x="851" y="-149.3" font-family="Courier,monospace" font-size="14.00">TRSAttribute</text>
</g>
<!-- TRSAttribute&#45;&gt;TREAttribute -->
<g id="edge4" class="edge">
<title>TRSAttribute&#45;&gt;TREAttribute</title>
<path fill="none" stroke="black" d="M909.14,-142.72C917.47,-141.22 926.11,-139.66 934.62,-138.13"/>
<polygon fill="black" stroke="black" points="935.3,-141.56 944.53,-136.35 934.06,-134.67 935.3,-141.56"/>
</g>
<!-- IncludesAllInputData -->
<g id="node7" class="node">
<title>IncludesAllInputData</title>
<path fill="#b3e2cd" stroke="black" d="M745,-117C745,-117 587,-117 587,-117 581,-117 575,-111 575,-105 575,-105 575,-93 575,-93 575,-87 581,-81 587,-81 587,-81 745,-81 745,-81 751,-81 757,-87 757,-93 757,-93 757,-105 757,-105 757,-111 751,-117 745,-117"/>
<text text-anchor="middle" x="666" y="-95.3" font-family="Courier,monospace" font-size="14.00">IncludesAllInputData</text>
</g>
<!-- IncludesAllInputData&#45;&gt;TROAttribute -->
<g id="edge5" class="edge">
<title>IncludesAllInputData&#45;&gt;TROAttribute</title>
<path fill="none" stroke="black" d="M757.16,-99C765.82,-99 774.49,-99 782.87,-99"/>
<polygon fill="black" stroke="black" points="782.93,-102.5 792.93,-99 782.93,-95.5 782.93,-102.5"/>
</g>
<!-- TRSCapability -->
<g id="node8" class="node">
<title>TRSCapability</title>
<path fill="#b3e2cd" stroke="black" d="M716,-171C716,-171 616,-171 616,-171 610,-171 604,-165 604,-159 604,-159 604,-147 604,-147 604,-141 610,-135 616,-135 616,-135 716,-135 716,-135 722,-135 728,-141 728,-147 728,-147 728,-159 728,-159 728,-165 722,-171 716,-171"/>
<text text-anchor="middle" x="666" y="-149.3" font-family="Courier,monospace" font-size="14.00">TRSCapability</text>
</g>
<!-- TRSCapability&#45;&gt;TRSAttribute -->
<g id="edge6" class="edge">
<title>TRSCapability&#45;&gt;TRSAttribute</title>
<path fill="none" stroke="black" d="M728.19,-153C745.65,-153 764.77,-153 782.58,-153"/>
<polygon fill="black" stroke="black" points="782.89,-156.5 792.89,-153 782.89,-149.5 782.89,-156.5"/>
</g>
<!-- CanProvideInternetIsolation -->
<g id="node9" class="node">
<title>CanProvideInternetIsolation</title>
<path fill="#b3e2cd" stroke="black" d="M527,-198C527,-198 312,-198 312,-198 306,-198 300,-192 300,-186 300,-186 300,-174 300,-174 300,-168 306,-162 312,-162 312,-162 527,-162 527,-162 533,-162 539,-168 539,-174 539,-174 539,-186 539,-186 539,-192 533,-198 527,-198"/>
<text text-anchor="middle" x="419.5" y="-176.3" font-family="Courier,monospace" font-size="14.00">CanProvideInternetIsolation</text>
</g>
<!-- CanProvideInternetIsolation&#45;&gt;TRSCapability -->
<g id="edge7" class="edge">
<title>CanProvideInternetIsolation&#45;&gt;TRSCapability</title>
<path fill="none" stroke="black" d="M539.17,-166.9C557.71,-164.85 576.36,-162.79 593.41,-160.91"/>
<polygon fill="black" stroke="black" points="594.25,-164.33 603.81,-159.76 593.48,-157.38 594.25,-164.33"/>
</g>
<!-- TRSPolicy -->
<g id="node10" class="node">
<title>TRSPolicy</title>
<path fill="#b3e2cd" stroke="black" d="M453,-144C453,-144 386,-144 386,-144 380,-144 374,-138 374,-132 374,-132 374,-120 374,-120 374,-114 380,-108 386,-108 386,-108 453,-108 453,-108 459,-108 465,-114 465,-120 465,-120 465,-132 465,-132 465,-138 459,-144 453,-144"/>
<text text-anchor="middle" x="419.5" y="-122.3" font-family="Courier,monospace" font-size="14.00">TRSPolicy</text>
</g>
<!-- TRSPolicy&#45;&gt;TRSCapability -->
<g id="edge8" class="edge">
<title>TRSPolicy&#45;&gt;TRSCapability</title>
<path fill="none" stroke="black" d="M465.06,-130.92C500.94,-134.88 552.08,-140.53 593.65,-145.12"/>
<polygon fill="black" stroke="black" points="593.4,-148.61 603.72,-146.23 594.17,-141.66 593.4,-148.61"/>
</g>
<!-- EnforcesInternetIsolation -->
<g id="node11" class="node">
<title>EnforcesInternetIsolation</title>
<path fill="#b3e2cd" stroke="black" d="M231.5,-144C231.5,-144 32.5,-144 32.5,-144 26.5,-144 20.5,-138 20.5,-132 20.5,-132 20.5,-120 20.5,-120 20.5,-114 26.5,-108 32.5,-108 32.5,-108 231.5,-108 231.5,-108 237.5,-108 243.5,-114 243.5,-120 243.5,-120 243.5,-132 243.5,-132 243.5,-138 237.5,-144 231.5,-144"/>
<text text-anchor="middle" x="132" y="-122.3" font-family="Courier,monospace" font-size="14.00">EnforcesInternetIsolation</text>
</g>
<!-- EnforcesInternetIsolation&#45;&gt;TRSPolicy -->
<g id="edge9" class="edge">
<title>EnforcesInternetIsolation&#45;&gt;TRSPolicy</title>
<path fill="none" stroke="black" d="M243.79,-126C284.84,-126 329.61,-126 363.55,-126"/>
<polygon fill="black" stroke="black" points="363.72,-129.5 373.72,-126 363.72,-122.5 363.72,-129.5"/>
</g>
<!-- TimeStampingAuthority -->
<g id="node12" class="node">
<title>TimeStampingAuthority</title>
<path fill="#b3e2cd" stroke="black" d="M215,-360C215,-360 49,-360 49,-360 43,-360 37,-354 37,-348 37,-348 37,-336 37,-336 37,-330 43,-324 49,-324 49,-324 215,-324 215,-324 221,-324 227,-330 227,-336 227,-336 227,-348 227,-348 227,-354 221,-360 215,-360"/>
<text text-anchor="middle" x="132" y="-338.3" font-family="Courier,monospace" font-size="14.00">TimeStampingAuthority</text>
</g>
<!-- TransparentResearchElement -->
<g id="node13" class="node">
<title>TransparentResearchElement</title>
<path fill="#b3e2cd" stroke="black" d="M523,-252C523,-252 316,-252 316,-252 310,-252 304,-246 304,-240 304,-240 304,-228 304,-228 304,-222 310,-216 316,-216 316,-216 523,-216 523,-216 529,-216 535,-222 535,-228 535,-228 535,-240 535,-240 535,-246 529,-252 523,-252"/>
<text text-anchor="middle" x="419.5" y="-230.3" font-family="Courier,monospace" font-size="14.00">TransparentResearchElement</text>
</g>
<!-- TimeStampingAuthority&#45;&gt;TransparentResearchElement -->
<g id="edge10" class="edge">
<title>TimeStampingAuthority&#45;&gt;TransparentResearchElement</title>
<path fill="none" stroke="black" d="M227.27,-325.89C239.77,-322.79 252.3,-319.18 264,-315 306.05,-299.98 350.92,-275.39 381.4,-257.24"/>
<polygon fill="black" stroke="black" points="383.23,-260.22 389.99,-252.07 379.62,-254.23 383.23,-260.22"/>
</g>
<!-- TransparentResearchObject -->
<g id="node14" class="node">
<title>TransparentResearchObject</title>
<path fill="#b3e2cd" stroke="black" d="M231.5,-306C231.5,-306 32.5,-306 32.5,-306 26.5,-306 20.5,-300 20.5,-294 20.5,-294 20.5,-282 20.5,-282 20.5,-276 26.5,-270 32.5,-270 32.5,-270 231.5,-270 231.5,-270 237.5,-270 243.5,-276 243.5,-282 243.5,-282 243.5,-294 243.5,-294 243.5,-300 237.5,-306 231.5,-306"/>
<text text-anchor="middle" x="132" y="-284.3" font-family="Courier,monospace" font-size="14.00">TransparentResearchObject</text>
</g>
<!-- TransparentResearchObject&#45;&gt;TransparentResearchElement -->
<g id="edge11" class="edge">
<title>TransparentResearchObject&#45;&gt;TransparentResearchElement</title>
<path fill="none" stroke="black" d="M228.46,-269.94C255.61,-264.81 285.32,-259.19 313.02,-253.95"/>
<polygon fill="black" stroke="black" points="313.95,-257.34 323.13,-252.04 312.65,-250.46 313.95,-257.34"/>
</g>
<!-- TransparentResearchPerformance -->
<g id="node15" class="node">
<title>TransparentResearchPerformance</title>
<path fill="#b3e2cd" stroke="black" d="M252,-252C252,-252 12,-252 12,-252 6,-252 0,-246 0,-240 0,-240 0,-228 0,-228 0,-222 6,-216 12,-216 12,-216 252,-216 252,-216 258,-216 264,-222 264,-228 264,-228 264,-240 264,-240 264,-246 258,-252 252,-252"/>
<text text-anchor="middle" x="132" y="-230.3" font-family="Courier,monospace" font-size="14.00">TransparentResearchPerformance</text>
</g>
<!-- TransparentResearchPerformance&#45;&gt;TransparentResearchElement -->
<g id="edge12" class="edge">
<title>TransparentResearchPerformance&#45;&gt;TransparentResearchElement</title>
<path fill="none" stroke="black" d="M264.05,-234C273.84,-234 283.71,-234 293.46,-234"/>
<polygon fill="black" stroke="black" points="293.58,-237.5 303.58,-234 293.58,-230.5 293.58,-237.5"/>
</g>
<!-- TransparentResearchSystem -->
<g id="node16" class="node">
<title>TransparentResearchSystem</title>
<path fill="#b3e2cd" stroke="black" d="M231.5,-198C231.5,-198 32.5,-198 32.5,-198 26.5,-198 20.5,-192 20.5,-186 20.5,-186 20.5,-174 20.5,-174 20.5,-168 26.5,-162 32.5,-162 32.5,-162 231.5,-162 231.5,-162 237.5,-162 243.5,-168 243.5,-174 243.5,-174 243.5,-186 243.5,-186 243.5,-192 237.5,-198 231.5,-198"/>
<text text-anchor="middle" x="132" y="-176.3" font-family="Courier,monospace" font-size="14.00">TransparentResearchSystem</text>
</g>
<!-- TransparentResearchSystem&#45;&gt;TransparentResearchElement -->
<g id="edge13" class="edge">
<title>TransparentResearchSystem&#45;&gt;TransparentResearchElement</title>
<path fill="none" stroke="black" d="M228.46,-198.06C255.61,-203.19 285.32,-208.81 313.02,-214.05"/>
<polygon fill="black" stroke="black" points="312.65,-217.54 323.13,-215.96 313.95,-210.66 312.65,-217.54"/>
</g>
</g>
</svg>
